<?xml version="1.0" standalone="no"?>
<!DOCTYPE svg PUBLIC "-//W3C//DTD SVG 20010904//EN"
 "http://www.w3.org/TR/2001/REC-SVG-20010904/DTD/svg10.dtd">
<svg version="1.0" xmlns="http://www.w3.org/2000/svg"
 width="700.000000pt" height="700.000000pt" viewBox="0 0 700.000000 700.000000"
 preserveAspectRatio="xMidYMid meet">
<metadata>
Created by potrace 1.11, written by Peter Selinger 2001-2013
</metadata>
<g transform="translate(0.000000,700.000000) scale(0.100000,-0.100000)"
fill="#000000" stroke="none">
<path d="M1909 5018 c0 -17 0 -612 0 -659 l1 -36 357 1 358 1 0 353 0 352
-357 0 c-280 0 -358 -3 -359 -12z"/>
<path d="M3149 5023 c-1 -5 -2 -164 -3 -354 l-1 -346 355 1 355 1 1 340 c0
187 -2 346 -4 353 -3 9 -83 12 -353 12 -192 0 -350 -3 -350 -7z"/>
<path d="M4376 4683 c1 -192 2 -351 3 -354 0 -3 162 -6 358 -5 l357 1 -1 350
0 350 -359 3 -359 2 1 -347z"/>
<path d="M442 4593 c-8 -3 -8 -1985 0 -1999 4 -5 600 -9 1493 -9 l1487 0 1055
-1055 c599 -598 1052 -1044 1048 -1030 -5 14 -21 66 -36 115 -34 111 -165 528
-254 810 -37 116 -68 217 -70 225 -2 8 -36 116 -76 240 -39 124 -75 239 -79
255 -5 17 -40 131 -79 253 -39 123 -71 226 -71 228 0 2 333 4 739 4 582 0 740
3 743 13 2 6 3 104 3 217 l-1 205 -1042 1 c-829 1 -1042 -2 -1038 -11 2 -7 23
-71 45 -141 22 -71 81 -259 131 -419 50 -159 100 -319 111 -355 11 -36 22 -72
25 -80 3 -8 -214 203 -481 470 -267 267 -488 487 -490 489 -3 2 -618 5 -1367
5 l-1363 1 -1 780 c-1 429 -2 782 -3 785 -1 5 -414 7 -429 3z"/>
</g>
</svg>
