<?xml version="1.0" encoding="UTF-8" standalone="no"?>
<svg
   xmlns:dc="http://purl.org/dc/elements/1.1/"
   xmlns:cc="http://creativecommons.org/ns#"
   xmlns:rdf="http://www.w3.org/1999/02/22-rdf-syntax-ns#"
   xmlns:svg="http://www.w3.org/2000/svg"
   xmlns="http://www.w3.org/2000/svg"
   xmlns:sodipodi="http://sodipodi.sourceforge.net/DTD/sodipodi-0.dtd"
   xmlns:inkscape="http://www.inkscape.org/namespaces/inkscape"
   viewBox="0 0 327 301.28"
   id="svg2"
   version="1.1"
   inkscape:version="0.91 r13725"
   sodipodi:docname="logo_white.svg"
   width="327"
   height="301.28">
  <metadata
     id="metadata42">
    <rdf:RDF>
      <cc:Work
         rdf:about="">
        <dc:format>image/svg+xml</dc:format>
        <dc:type
           rdf:resource="http://purl.org/dc/dcmitype/StillImage" />
        <dc:title>Plan de travail 9</dc:title>
      </cc:Work>
    </rdf:RDF>
  </metadata>
  <sodipodi:namedview
     pagecolor="#ffffff"
     bordercolor="#666666"
     borderopacity="1"
     objecttolerance="10"
     gridtolerance="10"
     guidetolerance="10"
     inkscape:pageopacity="0"
     inkscape:pageshadow="2"
     inkscape:window-width="1920"
     inkscape:window-height="1056"
     id="namedview40"
     showgrid="false"
     fit-margin-top="0"
     fit-margin-left="0"
     fit-margin-right="0"
     fit-margin-bottom="0"
     inkscape:zoom="0.66666667"
     inkscape:cx="-22.5"
     inkscape:cy="150.51"
     inkscape:window-x="0"
     inkscape:window-y="24"
     inkscape:window-maximized="1"
     inkscape:current-layer="svg2" />
  <defs
     id="defs4">
    <style
       id="style6">.cls-1{fill:#f4f4f8;}</style>
  </defs>
  <title
     id="title8">Plan de travail 9</title>
  <g
     id="Calque_2"
     data-name="Calque 2"
     transform="translate(-37,-26.23)">
    <g
       id="Et_si_demain"
       data-name="Et si demain">
      <polygon
         class="cls-1"
         points="37,156.59 46.58,156.59 46.58,234.88 176.21,234.88 234.01,292.69 214.6,232.47 303.04,232.47 303.04,242.05 227.75,242.05 255.29,327.51 255.29,327.51 172.24,244.46 37,244.46 "
         id="polygon12"
         style="fill:#f4f4f8" />
      <path
         class="cls-1"
         d="m 79.21,62.71 18.18,0 0,12 -18.18,0 0,24.72 22.88,0 0,12 -36.09,0 0,-84.24 36.12,0 0,12 -22.91,0 z"
         id="path14"
         inkscape:connector-curvature="0"
         style="fill:#f4f4f8" />
      <path
         class="cls-1"
         d="m 106.42,27.19 40.94,0 0,12 -13.85,0 0,72.24 -13.25,0 0,-72.2 -13.84,0 z"
         id="path16"
         inkscape:connector-curvature="0"
         style="fill:#f4f4f8" />
      <path
         class="cls-1"
         d="m 189.61,26.23 c 12.88,0 19.51,7.71 19.51,21.19 l 0,2.65 -12.53,0 0,-3.49 c 0,-6 -2.41,-8.31 -6.62,-8.31 -4.21,0 -6.62,2.29 -6.62,8.31 0,17.34 25.89,20.59 25.89,44.67 0,13.49 -6.74,21.19 -19.75,21.19 -13.01,0 -19.75,-7.71 -19.75,-21.19 l 0,-5.18 12.52,0 0,6 c 0,6 2.65,8.19 6.86,8.19 4.21,0 6.88,-2.15 6.88,-8.17 0,-17.34 -25.89,-20.59 -25.89,-44.67 0,-13.49 6.62,-21.19 19.5,-21.19 z"
         id="path18"
         inkscape:connector-curvature="0"
         style="fill:#f4f4f8" />
      <path
         class="cls-1"
         d="m 216.82,27.19 13.24,0 0,84.28 -13.24,0 z"
         id="path20"
         inkscape:connector-curvature="0"
         style="fill:#f4f4f8" />
      <path
         class="cls-1"
         d="m 66,131.22 20.92,0 c 13.25,0 19.75,7.34 19.75,20.83 l 0,42.62 c 0,13.48 -6.5,20.83 -19.75,20.83 l -20.92,0 z m 13.24,12 0,60.2 7.47,0 c 4.21,0 6.74,-2.17 6.74,-8.19 l 0,-43.78 c 0,-6 -2.53,-8.19 -6.74,-8.19 z"
         id="path22"
         inkscape:connector-curvature="0"
         style="fill:#f4f4f8" />
      <path
         class="cls-1"
         d="m 128.33,166.74 18.18,0 0,12 -18.18,0 0,24.68 22.88,0 0,12 -36.12,0 0,-84.2 36.12,0 0,12 -22.88,0 z"
         id="path24"
         inkscape:connector-curvature="0"
         style="fill:#f4f4f8" />
      <path
         class="cls-1"
         d="m 187.44,191.06 9,-59.84 18.46,0 0,84.28 -12.53,0 0,-60.44 -9.15,60.44 -12.52,0 -9.87,-59.6 0,59.6 -11.56,0 0,-84.28 18.42,0 z"
         id="path26"
         inkscape:connector-curvature="0"
         style="fill:#f4f4f8" />
      <path
         class="cls-1"
         d="m 267.39,215.51 -13.39,0 -2.29,-15.29 -16.23,0 -2.29,15.29 -12.19,0 13.48,-84.28 19.42,0 z m -30.22,-26.73 12.76,0 -6.38,-42.62 z"
         id="path28"
         inkscape:connector-curvature="0"
         style="fill:#f4f4f8" />
      <path
         class="cls-1"
         d="m 273.52,131.22 13.24,0 0,84.28 -13.24,0 z"
         id="path30"
         inkscape:connector-curvature="0"
         style="fill:#f4f4f8" />
      <path
         class="cls-1"
         d="m 308.2,154.46 0,61 -11.93,0 0,-84.24 16.62,0 13.61,50.45 0,-50.45 11.8,0 0,84.28 -13.61,0 z"
         id="path32"
         inkscape:connector-curvature="0"
         style="fill:#f4f4f8" />
    </g>
    <path
       class="cls-1"
       d="m 364,232.48 0,9.63 -10.15,0 0,-9.63 z"
       id="path34"
       inkscape:connector-curvature="0"
       style="fill:#f4f4f8" />
    <path
       class="cls-1"
       d="m 323.4,232.48 0,9.63 -10.15,0 0,-9.63 z"
       id="path36"
       inkscape:connector-curvature="0"
       style="fill:#f4f4f8" />
    <path
       class="cls-1"
       d="m 343.7,232.48 0,9.63 -10.15,0 0,-9.63 z"
       id="path38"
       inkscape:connector-curvature="0"
       style="fill:#f4f4f8" />
  </g>
</svg>
